<svg xmlns="http://www.w3.org/2000/svg" xmlns:xlink="http://www.w3.org/1999/xlink" width="1887.8138" height="256" version="1">
  <title>
    Social Media Icons
  </title>
  <defs>
    <linearGradient id="a">
      <stop offset="0" stop-color="#FFF"/>
      <stop offset="1" stop-color="#FFF" stop-opacity="0"/>
    </linearGradient>
    <linearGradient xlink:href="#a" id="c" gradientUnits="userSpaceOnUse" gradientTransform="matrix(-.5915 0 0 .5915 210.022 142.232)" x1="-344.15295" y1="274.711" x2="-395.84943" y2="425.39993"/>
    <linearGradient id="d" gradientUnits="userSpaceOnUse" x1="-1313.1793" y1="916.68579" x2="-1364.8761" y2="1067.3752" gradientTransform="matrix(-.5915 0 0 .5915 5.83 -248.187)">
      <stop offset="0" stop-color="#FFF"/>
      <stop offset="1" stop-color="#FFF" stop-opacity="0"/>
    </linearGradient>
    <linearGradient gradientTransform="translate(338.7 -.288)" id="e" gradientUnits="userSpaceOnUse" x1="500.92181" y1="547.50897" x2="500.92181" y2="445.58469">
      <stop offset="0" stop-color="#932420"/>
      <stop offset="1" stop-color="#CB322C"/>
    </linearGradient>
    <linearGradient id="b">
      <stop offset="0" stop-color="#15a0dd"/>
      <stop offset="1" stop-color="#15a0dd" stop-opacity="0"/>
    </linearGradient>
    <linearGradient xlink:href="#a" id="f" gradientUnits="userSpaceOnUse" gradientTransform="matrix(-.5915 0 0 .5915 843.45 148.804)" x1="-344.15295" y1="274.711" x2="-395.84943" y2="425.39993"/>
    <linearGradient xlink:href="#a" id="g" gradientUnits="userSpaceOnUse" gradientTransform="matrix(-.5915 0 0 .5915 996.307 405.947)" x1="-344.15295" y1="274.711" x2="-395.84943" y2="425.39993"/>
    <linearGradient id="h" y2="425.39999" gradientUnits="userSpaceOnUse" x2="-395.85001" gradientTransform="matrix(-.5034 0 0 .5034 722.606 481.255)" y1="274.70999" x1="-344.14999">
      <stop stop-color="#FFF" offset="0"/>
      <stop stop-color="#FFF" stop-opacity="0" offset="1"/>
    </linearGradient>
    <path id="j" d="M465.07058 436.48685l75.71428.71429m-77.85714-50v85c-.0754 17.76189 9.6244 34.3577 32.14286 36.42857h43.57143" fill="none" stroke-width="40" stroke-linecap="round"/>
    <linearGradient xlink:href="#a" id="i" gradientUnits="userSpaceOnUse" gradientTransform="matrix(-.5915 0 0 .5915 77.98 484.385)" x1="-344.15295" y1="274.711" x2="-395.84943" y2="425.39993"/>
    <linearGradient xlink:href="#b" id="k" gradientUnits="userSpaceOnUse" x1="487.21298" y1="528.6297" x2="486.49915" y2="419.34396"/>
  </defs>
  <g transform="matrix(1.0847 0 0 1.0847 -416.154 -356.17)">
    <rect transform="scale(-1 1)" ry="35.487503" rx="35.487503" y="328.34399" x="-619.64203" height="236" width="236" fill="#0037c1" fill-rule="evenodd"/>
    <path d="M557.29062 338.43314H445.99327c-29.46072 0-53.1782 23.91213-53.1782 53.61463v108.5923c.9536 23.18533 4.62171 8.52805 11.6038-17.14813 8.11467-29.84092 34.54169-55.92231 66.72513-75.46882 24.5646-14.91914 52.05995-24.44592 102.10882-25.35222 28.38415-.51396 25.8783-36.84065-15.9622-44.23776z" opacity=".300429" fill="url(#c)" fill-rule="evenodd"/>
    <path d="M544.542657 538.49471h-38.073403v-92.905357h-19.021416v-32.01695h19.021416v-19.22286c0-26.119377 10.74068-41.651042 41.256227-41.651042h25.405047v32.020577h-15.879952c-11.878945 0-12.66476 4.474396-12.66476 12.82491l-.043158 16.02479h28.76769l-3.36624 32.01695h-25.40145v92.908982z" fill="#fff"/>
  </g>
  <path d="M869.194242.000022H690.491675c-21.35149 0-38.660152 17.308662-38.660152 38.660152v178.68078c0 21.351488 17.308662 38.65906 38.660152 38.65906h178.700388c21.35258 0 38.660152-17.30866 40.838986-37.93242V39.387904C907.853303 17.309775 890.543552.000023 869.19424.000023z" fill="#e5e5e5"/>
  <path d="M895.75713 338.60663h-110.829c-29.337 0-52.955 23.81-52.955 53.385v108.126c.95 23.088 4.603 8.492 11.555-17.074 8.081-29.713 34.396-55.682 66.445-75.146 24.461-14.855 51.841-24.341 101.679-25.244 28.265-.51 25.77-36.682-15.895-44.047z" opacity=".8326" fill="url(#d)" transform="translate(-135.642 -357.94) scale(1.0894)"/>
  <path d="M705.36658 27.14176h16.67244l2.146153 8.58352 1.81606 6.33823 1.485964 6.20641 1.485965 6.47005 1.155872 5.414403h.660187l1.155873-5.414404 1.320374-6.47005 1.650467-6.20641 1.650467-6.33823 2.310655-8.58352h16.176758l-17.167038 51.501114v36.579365h-15.35098V78.642873L705.36658 27.14176zM775.685197 48.798287c13.040325 0 19.643284 6.20641 19.643284 18.487412v30.372953c0 12.281002-6.602958 18.487412-19.643283 18.487412s-19.643283-6.20641-19.643283-18.487412V67.2857c0-12.279913 6.60187-18.487413 19.643283-18.487413zm0 10.56517c-3.466526 0-5.282584 2.11238-5.282584 6.07459v34.068258c0 3.829302 1.98056 6.07459 5.282584 6.07459s5.282585-2.245288 5.282585-6.07459V65.438047c-.00109-3.96221-1.98165-6.07459-5.282585-6.07459zM836.264425 115.22224l-1.155872-5.678044c-5.94277 4.886037-9.410386 6.602958-13.5371 6.602958-3.466525 0-7.097553-1.585102-8.74693-3.697482-1.81715-2.24529-2.310655-4.622398-2.310655-11.357175V49.591383h14.3607v51.105655c0 3.300935 1.15587 4.886037 3.79553 4.886037 1.817147 0 3.467614-.660187 6.438455-2.640748V49.591383h14.36179v65.630856h-13.205918z"/>
  <path d="M773.08413 445.29563h133.075c19.6 0 35.488 15.896 35.488 35.496v30.941c0 19.6-15.89 35.487-35.488 35.487h-133.075c-19.599 0-35.487-15.89-35.487-35.487v-30.941c0-19.6 15.888-35.496 35.487-35.496z" fill="url(#e)" transform="translate(-135.642 -357.94) scale(1.0894)"/>
  <g fill="#fff">
    <path d="M701.771502 152.493388h-13.054488v-10.445333h40.66577v10.445333h-13.655847v69.629017h-13.955435v-69.629017zM755.19108 222.122405l-1.0502-5.16057c-5.40133 4.441555-8.553014 6.00269-12.303878 6.00269-3.151684 0-6.45262-1.43912-7.952746-3.361942-1.650468-2.04048-2.101486-4.200793-2.101486-10.325497V162.45611h13.055576v46.45929c0 3.002433 1.0502 4.442643 3.451274 4.442643 1.650468 0 3.151685-.601358 5.85235-2.399986V162.45611h13.055577v59.667385H755.19108v-.00109zM781.302233 142.049144h13.054487v26.052325c5.101742-4.56248 8.553016-6.363287 12.455308-6.363287 3.002435 0 6.30228 1.44021 7.802407 3.360852 1.651557 2.160315 2.102576 4.323898 2.102576 10.686095v33.133537c0 6.242362-.451018 8.404855-2.102575 10.56408-1.500127 2.042657-4.799972 3.481778-7.952746 3.481778-3.902294 0-7.203228-1.800807-12.30497-6.483123v5.64427h-13.054487v-80.076528zm18.906837 71.312167c2.399986 0 3.451274-1.440208 3.451274-4.442643V175.78295c0-3.12009-1.051288-4.440464-3.451274-4.440464-1.651556 0-3.152773.60027-5.85235 2.399986v37.216674c2.701755 1.800807 4.201883 2.402165 5.85235 2.402165zM866.083955 201.235007v2.160315c.15034 1.561135.15034 2.641837.15034 3.242106 0 10.56408-6.45262 16.327097-18.307658 16.327097-11.25368 0-17.55596-6.00269-17.55596-16.80753v-27.732207c0-11.284185 6.00269-16.686605 18.15623-16.686605 10.80484 0 17.557048 5.642092 17.557048 14.885798v17.527636h-22.65879v13.08608c0 4.323898 1.349788 6.123615 4.801062 6.123615 1.651557 0 3.151684-.721193 3.900114-1.799716.75061-1.080702.90204-2.401076.90204-6.722794v-3.603793h13.055575zm-13.054487-15.487156v-10.084735c0-2.760583-1.799717-4.321718-4.80215-4.321718-3.000257 0-4.799974 1.561135-4.799974 4.321718v10.084736h9.602124z"/>
  </g>
  <g transform="matrix(1.087 0 0 1.087 199.94 -364.363)">
    <rect transform="scale(-1 1)" ry="35.487503" rx="35.487503" y="335.42065" x="-1252.5746" height="234.98955" width="235.00784" fill="#6bc1ff" fill-rule="evenodd" stroke="#000" stroke-width=".5" stroke-linecap="square" stroke-dasharray="0.5, 1"/>
    <path d="M1190.4853 345.46663h-110.8295c-29.3369 0-52.9546 23.80974-52.9546 53.38507v108.12736c.9496 23.08605 4.6023 8.49154 11.555-17.07471 8.0806-29.71315 34.3965-55.68287 66.4446-75.1457 24.4613-14.85525 51.8411-24.34125 101.6796-25.24367 28.2648-.51176 25.7695-36.68291-15.8951-44.04835z" fill="url(#f)" fill-rule="evenodd"/>
    <ellipse ry="21.662403" rx="20.714287" cy="450.43503" cx="1054.7181" fill="#fff" stroke="#000" stroke-width="8"/>
    <ellipse ry="21.662403" rx="20.714287" cy="450.91544" cx="1210.4325" fill="#fff" stroke="#000" stroke-width="8"/>
    <path d="M1189.0038 392.34402c-15.6538-6.42487-31.6046-14.03756-43.5714-5.71429-13.8571 6.38098-13.1961 27.28006-12.1429 48.57143" fill="none" stroke="#000" stroke-width="10"/>
    <ellipse ry="60.357143" rx="85.479332" cy="481.98691" cx="1133.0547" fill="#fff" stroke="#000" stroke-width="8" stroke-linecap="round"/>
    <ellipse ry="19.642857" rx="18.214287" cy="395.55832" cx="1198.6467" fill="#fff" stroke="#000" stroke-width="8" stroke-linecap="round"/>
    <ellipse ry="12.5" rx="12.202381" cy="469.84402" cx="1097.6349" fill="red"/>
    <ellipse ry="12.5" rx="12.202381" cy="468.77261" cx="1161.1467" fill="red"/>
    <path d="M1096.861 503.0583c27.1089 19.15003 47.5426 11.59907 67.1428.71429" fill="none" stroke="#000" stroke-width="10" stroke-linecap="round"/>
  </g>
  <g transform="translate(-295.135 -645.545) scale(1.0894)">
    <rect transform="scale(-1 1)" ry="35.487503" rx="35.487503" y="592.56354" x="-1405.4316" height="234.98955" width="235.00784" fill="#e15a00" fill-rule="evenodd"/>
    <path d="M1343.3424 602.60949H1232.513c-29.3369 0-52.9547 23.80974-52.9547 53.38507v108.12736c.9496 23.08605 4.6023 8.49154 11.555-17.07471 8.0806-29.71315 34.3965-55.68287 66.4447-75.1457 24.4613-14.85525 51.841-24.34125 101.6795-25.24367 28.2648-.51176 25.7695-36.68291-15.8951-44.04835z" opacity=".607477" fill="url(#g)" fill-rule="evenodd"/>
    <ellipse ry="20.816837" rx="21.438236" cy="768.7937" cx="1234.9374" fill="#fff"/>
    <path d="M1214.1206 718.77112l-.073-30.27316c64.7061 3.37545 100.6188 49.67317 101.5002 101.93961h-30.3182c-.5031-45.94077-31.7407-69.99522-71.1092-71.66645z" fill="#fff" fill-rule="evenodd"/>
    <path d="M1214.4872 668.2858l-.8788-30.75764c99.4284 4.61626 152.6776 76.76812 153.3488 152.90941l-31.197-.4394c1.3649-48.70349-34.6657-120.26655-121.273-121.71237z" fill="#fff" fill-rule="evenodd"/>
  </g>
  <g transform="matrix(1.28 0 0 1.28 517.072 -819.37)">
    <rect transform="scale(-1 1)" rx="30.201" ry="30.201" height="199.98" width="200" y="640.0683" x="-1070.7849" fill="#069"/>
    <path d="M1017.9448 648.61826h-94.31997c-24.967 0-45.066 20.263-45.066 45.433v92.02c.80814 19.647 3.9167 7.2266 9.8337-14.531 6.8768-25.287 29.273-47.388 56.547-63.952 20.817-12.642 44.119-20.715 86.53297-21.483 24.054-.43553 21.931-31.218-13.527-37.487z" opacity=".781116" fill="url(#h)"/>
    <path d="M934.77683 807.90706v-90.884h-30.208v90.884h30.208zm-15.1-103.3c10.534 0 17.091-6.9789 17.091-15.7-.19632-8.9179-6.5566-15.703-16.891-15.703-10.333 0-17.09 6.7852-17.09 15.703 0 8.7216 6.5553 15.7 16.693 15.7h.19633zM951.49683 807.90706h30.208v-50.754c0-2.7163.19632-5.4298.99398-7.3715 2.1838-5.4271 7.1542-11.048 15.499-11.048 10.93099 0 15.30399 8.3343 15.30399 20.552v48.621h30.206v-52.112c0-27.916-14.903-40.905-34.778-40.905-16.29599 0-23.45099 9.1089-27.42599 15.313h.2017v-13.181h-30.208c.39641 8.528 0 90.884 0 90.884z" fill="#fff"/>
  </g>
  <g transform="translate(51.268 -730.996) scale(1.0894)">
    <rect transform="scale(-1 1)" ry="35.487503" rx="35.487503" y="671.00159" x="-487.10532" height="234.98955" width="235.00784" fill="#9bebee" fill-rule="evenodd"/>
    <path d="M425.01609 681.04754H314.18665c-29.33688 0-52.95465 23.80974-52.95465 53.38507v108.12736c.9496 23.08605 4.60229 8.49154 11.55502-17.07471 8.08056-29.71315 34.39648-55.68287 66.44461-75.1457 24.46133-14.85525 51.84109-24.34125 101.67955-25.24367 28.26482-.51176 25.7695-36.68291-15.89509-44.04835z" fill="url(#i)" fill-rule="evenodd"/>
    <use height="100%" width="100%" transform="translate(-132.04 342.152)" xlink:href="#j" stroke="#157dc3"/>
    <use height="100%" width="100%" transform="translate(-132.04 342.152)" xlink:href="#j" stroke="url(#k)"/>
  </g>
</svg>
